HIERARCHY
ROOT Hips
{
	OFFSET 0.00000 0.00000 0.00000
	CHANNELS 6 Xposition Yposition Zposition Zrotation Yrotation Xrotation 
	JOINT LHipJoint
	{
		OFFSET 0 0 0
		CHANNELS 3 Zrotation Yrotation Xrotation
		JOINT LeftUpLeg
		{
			OFFSET 1.37590 -1.78394 0.89329
			CHANNELS 3 Zrotation Yrotation Xrotation
			JOINT LeftLeg
			{
				OFFSET 2.47928 -6.81178 0.00000
				CHANNELS 3 Zrotation Yrotation Xrotation
				JOINT LeftFoot
				{
					OFFSET 2.63345 -7.23535 0.00000
					CHANNELS 3 Zrotation Yrotation Xrotation
					JOINT LeftToeBase
					{
						OFFSET 0.23938 -0.65768 2.27012
						CHANNELS 3 Zrotation Yrotation Xrotation
						End Site
						{
							OFFSET 0.00000 -0.00000 1.18363
						}
					}
				}
			}
		}
	}
	JOINT RHipJoint
	{
		OFFSET 0 0 0
		CHANNELS 3 Zrotation Yrotation Xrotation
		JOINT RightUpLeg
		{
			OFFSET -1.33617 -1.78394 0.89329
			CHANNELS 3 Zrotation Yrotation Xrotation
			JOINT RightLeg
			{
				OFFSET -2.56922 -7.05888 0.00000
				CHANNELS 3 Zrotation Yrotation Xrotation
				JOINT RightFoot
				{
					OFFSET -2.56568 -7.04915 0.00000
					CHANNELS 3 Zrotation Yrotation Xrotation
					JOINT RightToeBase
					{
						OFFSET -0.27533 -0.75646 2.18105
						CHANNELS 3 Zrotation Yrotation Xrotation
						End Site
						{
							OFFSET -0.00000 -0.00000 1.15233
						}
					}
				}
			}
		}
	}
	JOINT LowerBack
	{
		OFFSET 0 0 0
		CHANNELS 3 Zrotation Yrotation Xrotation
		JOINT Spine
		{
			OFFSET 0.06190 2.15152 -0.00935
			CHANNELS 3 Zrotation Yrotation Xrotation
			JOINT Spine1
			{
				OFFSET 0.06334 2.15332 0.00872
				CHANNELS 3 Zrotation Yrotation Xrotation
				JOINT Neck
				{
					OFFSET 0 0 0
					CHANNELS 3 Zrotation Yrotation Xrotation
					JOINT Neck1
					{
						OFFSET -0.04202 1.66908 0.23524
						CHANNELS 3 Zrotation Yrotation Xrotation
						JOINT Head
						{
							OFFSET 0.07510 1.69357 -0.24440
							CHANNELS 3 Zrotation Yrotation Xrotation
							End Site
							{
								OFFSET 0.02556 1.71719 -0.11000
							}
						}
					}
				}
				JOINT LeftShoulder
				{
					OFFSET 0 0 0
					CHANNELS 3 Zrotation Yrotation Xrotation
					JOINT LeftArm
					{
						OFFSET 3.67168 1.26306 -0.41342
						CHANNELS 3 Zrotation Yrotation Xrotation
						JOINT LeftForeArm
						{
							OFFSET 4.68510 -0.00000 -0.00000
							CHANNELS 3 Zrotation Yrotation Xrotation
							JOINT LeftHand
							{
								OFFSET 3.39626 -0.00000 -0.00000
								CHANNELS 3 Zrotation Yrotation Xrotation
								JOINT LeftFingerBase
								{
									OFFSET 0 0 0
									CHANNELS 3 Zrotation Yrotation Xrotation
									JOINT LeftHandIndex1
									{
										OFFSET 0.48608 -0.00000 -0.00000
										CHANNELS 3 Zrotation Yrotation Xrotation
										End Site
										{
											OFFSET 0.39189 -0.00000 -0.00000
										}
									}
								}
								JOINT LThumb
								{
									OFFSET 0 0 0
									CHANNELS 3 Zrotation Yrotation Xrotation
									End Site
									{
										OFFSET 0.39787 -0.00000 0.39787
									}
								}
							}
						}
					}
				}
				JOINT RightShoulder
				{
					OFFSET 0 0 0
					CHANNELS 3 Zrotation Yrotation Xrotation
					JOINT RightArm
					{
						OFFSET -3.04136 1.42992 -0.76390
						CHANNELS 3 Zrotation Yrotation Xrotation
						JOINT RightForeArm
						{
							OFFSET -5.55576 -0.00000 -0.00000
							CHANNELS 3 Zrotation Yrotation Xrotation
							JOINT RightHand
							{
								OFFSET -3.32774 -0.00000 -0.00000
								CHANNELS 3 Zrotation Yrotation Xrotation
								JOINT RightFingerBase
								{
									OFFSET 0 0 0
									CHANNELS 3 Zrotation Yrotation Xrotation
									JOINT RightHandIndex1
									{
										OFFSET -0.50763 -0.00000 -0.00000
										CHANNELS 3 Zrotation Yrotation Xrotation
										End Site
										{
											OFFSET -0.40926 -0.00000 -0.00000
										}
									}
								}
								JOINT RThumb
								{
									OFFSET 0 0 0
									CHANNELS 3 Zrotation Yrotation Xrotation
									End Site
									{
										OFFSET -0.41551 -0.00000 0.41551
									}
								}
							}
						}
					}
				}
			}
		}
	}
}
MOTION
Frames: 10
Frame Time: .0083333
1.8930 18.1291 4.0623 -93.6536 -81.2393 98.6359 0.0000 0.0000 0.0000 -3.6591 -5.3121 -26.9102 8.8039 16.6799 55.4095 0.1771 -1.3616 -7.5865 0.9505 -6.2086 -17.3909 0.0000 0.0000 0.0000 33.2508 5.6041 -5.1688 -0.6312 -5.0834 14.1466 -0.0257 -7.9601 -11.8651 -0.7692 -5.6003 15.6290 6.6807 1.5635 0.1206 3.7170 2.1036 -1.6078 0.0616 0.9396 -1.6247 -5.5368 -2.2777 -19.1974 0.6366 -1.7186 11.7578 0.9032 -1.0325 6.7746 -0.0000 0.0000 0.0000 -73.1075 7.6394 18.0947 38.2759 -47.0146 -17.1671 -0.0000 -0.0000 8.2856 11.2062 23.0302 4.4320 -7.1250 0.0000 -0.0000 -18.2994 52.4754 -3.4609 -0.0000 0.0000 0.0000 63.6551 11.9134 13.1912 -36.0080 45.5187 -15.5282 0.0000 -0.0000 -12.2924 -3.2466 -24.4555 1.3452 7.1250 -0.0000 -0.0000 26.6521 -52.4269 -5.1711
1.7546 18.1382 4.0574 -93.7878 -81.1416 98.7958 0.0000 0.0000 0.0000 -3.4636 -5.5301 -27.5227 8.4409 16.4342 54.1357 0.1974 -1.1108 -8.0739 0.9614 -6.2432 -17.4918 0.0000 0.0000 0.0000 33.4535 5.4689 -4.3193 -0.5767 -4.8632 13.5188 -0.0264 -8.0536 -12.0063 -0.7486 -5.5264 15.4163 6.9042 1.7053 0.0040 3.5771 2.2893 -1.7039 -0.2053 1.0267 -1.6360 -5.5911 -2.2867 -19.1275 0.3562 -1.6747 12.0594 0.8251 -1.0455 6.8592 0.0000 0.0000 0.0000 -73.1494 7.6505 19.2478 40.3005 -48.2469 -18.6631 -0.0000 -0.0000 8.4038 10.6120 22.3652 4.0779 -7.1250 0.0000 -0.0000 -18.5441 51.7413 -3.1692 0.0000 0.0000 0.0000 62.5473 12.6484 13.1557 -37.7968 46.7090 -16.8175 0.0000 -0.0000 -12.8995 -2.2726 -23.6257 0.9112 7.1250 -0.0000 -0.0000 27.0594 -51.5259 -4.6344
1.6174 18.1444 4.0538 -93.8241 -81.0386 98.8766 0.0000 0.0000 0.0000 -3.2637 -5.7647 -28.1048 8.0520 16.1574 52.7497 0.2166 -0.8164 -8.5392 0.9687 -6.2662 -17.5586 0.0000 0.0000 0.0000 33.6513 5.3390 -3.5357 -0.5302 -4.6662 12.9589 -0.0291 -8.1354 -12.1692 -0.7251 -5.4409 15.1704 7.1393 1.8400 -0.1092 3.4425 2.4653 -1.8019 -0.4725 1.1083 -1.6495 -5.6481 -2.2902 -19.0651 0.0750 -1.6213 12.3538 0.7480 -1.0549 6.9428 -0.0000 -0.0000 0.0000 -73.2358 7.6904 20.3390 42.4531 -49.4579 -20.2842 -0.0000 -0.0000 8.5766 10.0847 21.6096 3.7475 -7.1250 0.0000 -0.0000 -18.6866 50.9363 -2.8173 -0.0000 -0.0000 0.0000 61.3892 13.4170 12.9436 -39.5404 47.7952 -18.0980 0.0000 -0.0000 -13.4794 -1.5443 -22.9535 0.6024 7.1250 -0.0000 -0.0000 27.3371 -50.8117 -4.1841
1.4809 18.1477 4.0514 -93.7994 -80.9279 98.9139 0.0000 0.0000 0.0000 -3.0557 -6.0103 -28.6514 7.6395 15.8476 51.2536 0.2339 -0.4692 -8.9797 0.9717 -6.2756 -17.5861 0.0000 0.0000 0.0000 33.8487 5.2197 -2.8170 -0.4916 -4.4957 12.4755 -0.0344 -8.2009 -12.3571 -0.7008 -5.3511 14.9127 7.3859 1.9691 -0.2256 3.3126 2.6328 -1.8992 -0.7404 1.1851 -1.6588 -5.6989 -2.2866 -19.0035 -0.2098 -1.5587 12.6354 0.6696 -1.0605 7.0224 0.0000 -0.0000 0.0000 -73.3711 7.7556 21.3521 44.7505 -50.6456 -22.0456 -0.0000 -0.0000 8.8426 9.5937 20.9093 3.4521 -7.1250 0.0000 -0.0000 -18.8271 50.1935 -2.4874 0.0000 -0.0000 0.0000 60.1895 14.2313 12.5559 -41.1929 48.7610 -19.3315 0.0000 -0.0000 -14.0502 -1.0868 -22.4471 0.4150 7.1250 -0.0000 -0.0000 27.4658 -50.2909 -3.8355
1.3454 18.1483 4.0503 -93.7199 -80.8114 98.9153 0.0000 0.0000 0.0000 -2.8419 -6.2686 -29.1636 7.2064 15.5033 49.6508 0.2487 -0.0709 -9.3945 0.9718 -6.2761 -17.5876 0.0000 0.0000 0.0000 34.0431 5.1124 -2.1721 -0.4610 -4.3553 12.0784 -0.0433 -8.2443 -12.5775 -0.6728 -5.2452 14.6092 7.6447 2.0902 -0.3389 3.1839 2.7895 -2.0006 -1.0132 1.2558 -1.6723 -5.7362 -2.2708 -18.9424 -0.4949 -1.4823 12.9034 0.5904 -1.0593 7.0976 0.0000 -0.0000 0.0000 -73.5548 7.8617 22.2814 47.2133 -51.8078 -23.9660 -0.0000 -0.0000 9.1698 9.1473 20.2193 3.1853 -7.1250 0.0000 -0.0000 -18.9361 49.4706 -2.1568 0.0000 -0.0000 0.0000 58.9592 15.0858 12.0092 -42.7230 49.6029 -20.4895 0.0000 -0.0000 -14.6400 -0.8935 -22.1020 0.3362 7.1250 -0.0000 -0.0000 27.4482 -49.9553 -3.5930
1.2110 18.1461 4.0504 -93.6258 -80.6927 98.9222 0.0000 0.0000 0.0000 -2.6269 -6.5336 -29.6373 6.7536 15.1208 47.9361 0.2595 0.3873 -9.7692 0.9688 -6.2665 -17.5598 0.0000 0.0000 0.0000 34.2310 5.0207 -1.6034 -0.4381 -4.2471 11.7728 -0.0559 -8.2612 -12.8273 -0.6436 -5.1323 14.2864 7.9103 2.2054 -0.4504 3.0540 2.9383 -2.1079 -1.2907 1.3218 -1.6915 -5.7549 -2.2423 -18.8763 -0.7795 -1.3935 13.1568 0.5097 -1.0515 7.1670 0.0000 -0.0000 0.0000 -73.7884 8.0032 23.1266 49.8244 -52.9244 -26.0340 -0.0000 -0.0000 9.5102 8.7622 19.5448 2.9518 -7.1250 0.0000 -0.0000 -19.0010 48.7740 -1.8293 0.0000 -0.0000 0.0000 57.7089 15.9798 11.3094 -44.0918 50.3157 -21.5375 0.0000 -0.0000 -15.2623 -0.9530 -21.9295 0.3559 7.1250 -0.0000 -0.0000 27.2993 -49.8112 -3.4684
1.0771 18.1411 4.0514 -93.5465 -80.5741 98.9609 0.0000 0.0000 0.0000 -2.4131 -6.8024 -30.0660 6.2841 14.6981 46.1117 0.2647 0.9061 -10.0898 0.9622 -6.2458 -17.4992 0.0000 0.0000 0.0000 34.4123 4.9468 -1.1032 -0.4221 -4.1699 11.5552 -0.0719 -8.2581 -13.1025 -0.6122 -5.0078 13.9307 8.1733 2.3173 -0.5685 2.9251 3.0812 -2.2137 -1.5649 1.3846 -1.7044 -5.7558 -2.2032 -18.8140 -1.0646 -1.2940 13.3972 0.4271 -1.0380 7.2327 -0.0000 -0.0000 0.0000 -74.0763 8.1642 23.8976 52.5774 -53.9836 -28.2460 -0.0000 -0.0000 9.8242 8.4141 18.9290 2.7472 -7.1250 0.0000 -0.0000 -19.0620 48.1407 -1.5289 -0.0000 -0.0000 0.0000 56.4394 16.9214 10.4517 -45.2642 50.8972 -22.4436 0.0000 -0.0000 -15.9255 -1.1830 -21.9022 0.4413 7.1250 -0.0000 -0.0000 27.0765 -49.8218 -3.4435
0.9434 18.1336 4.0533 -93.5185 -80.4588 99.0657 0.0000 0.0000 0.0000 -2.2062 -7.0679 -30.4433 5.8006 14.2322 44.1759 0.2628 1.4892 -10.3445 0.9536 -6.2185 -17.4197 0.0000 0.0000 0.0000 34.5830 4.8883 -0.6650 -0.4123 -4.1216 11.4190 -0.0915 -8.2321 -13.4039 -0.5782 -4.8691 13.5355 8.4284 2.4275 -0.6975 2.7961 3.2197 -2.3158 -1.8339 1.4456 -1.7063 -5.7377 -2.1561 -18.7539 -1.3495 -1.1880 13.6242 0.3422 -1.0206 7.2946 -0.0000 0.0000 0.0000 -74.4250 8.3245 24.5886 55.4338 -54.9650 -30.5709 -0.0000 -0.0000 10.0783 8.0722 18.3854 2.5613 -7.1250 0.0000 -0.0000 -19.1509 47.5782 -1.2623 -0.0000 0.0000 0.0000 55.1552 17.9119 9.4474 -46.1992 51.3426 -23.1715 0.0000 -0.0000 -16.6178 -1.5617 -21.9942 0.5850 7.1250 -0.0000 -0.0000 26.7839 -49.9614 -3.4983
0.8113 18.1237 4.0568 -93.5522 -80.3512 99.2536 0.0000 0.0000 0.0000 -2.0136 -7.3358 -30.7789 5.3064 13.7208 42.1303 0.2520 2.1303 -10.5109 0.9396 -6.1741 -17.2904 0.0000 0.0000 0.0000 34.7322 4.8353 -0.2963 -0.4073 -4.0971 11.3501 -0.1141 -8.1795 -13.7114 -0.5419 -4.7166 13.1019 8.6798 2.5393 -0.8189 2.6636 3.3610 -2.4224 -2.1043 1.5074 -1.7153 -5.7815 -2.1090 -18.7392 -1.5476 -1.0753 13.8908 0.2959 -0.9963 7.3783 -0.0000 -0.0000 0.0000 -74.8245 8.4949 25.2346 58.3949 -55.8668 -33.0090 -0.0000 -0.0000 10.2464 7.6932 17.9417 2.3829 -7.1250 0.0000 -0.0000 -19.3163 47.1075 -1.0421 -0.0000 -0.0000 0.0000 53.8533 18.9404 8.3037 -46.8753 51.6548 -23.7006 0.0000 -0.0000 -17.3237 -2.0580 -22.1987 0.7779 7.1250 -0.0000 -0.0000 26.4449 -50.2201 -3.6253
0.6798 18.1114 4.0616 -93.6796 -80.2515 99.5490 0.0000 0.0000 0.0000 -1.8348 -7.5997 -31.0585 4.8050 13.1608 39.9734 0.2314 2.8191 -10.5758 0.9197 -6.1101 -17.1042 0.0000 0.0000 0.0000 34.8608 4.7825 0.0236 -0.4059 -4.0903 11.3309 -0.1387 -8.1055 -14.0165 -0.5025 -4.5443 12.6133 8.9251 2.6532 -0.9386 2.5270 3.5047 -2.5273 -2.3753 1.5702 -1.7218 -5.8627 -2.0667 -18.7734 -1.6830 -0.9640 14.1939 0.2754 -0.9703 7.4831 -0.0000 -0.0000 0.0000 -75.2800 8.6583 25.8259 61.4161 -56.6756 -35.5219 -0.0000 -0.0000 10.3389 7.2953 17.5875 2.2153 -7.1250 0.0000 -0.0000 -19.5348 46.7207 -0.8616 -0.0000 -0.0000 0.0000 52.5348 20.0091 7.0388 -47.2693 51.8330 -24.0100 0.0000 -0.0000 -18.0122 -2.6292 -22.4929 1.0065 7.1250 -0.0000 -0.0000 26.0851 -50.5721 -3.8068
